<svg width="24" height="24" viewBox="0 0 24 24" fill="none" xmlns="http://www.w3.org/2000/svg">
<g clip-path="url(#clip0_5_916)">
<path d="M11.9891 22.5229C12.2495 22.5229 12.51 22.5118 12.7703 22.4899L13.3779 23.6462C13.5081 23.9106 13.7685 24.0427 14.0723 23.9876C14.3653 23.9326 14.5714 23.7123 14.6039 23.404L14.7992 22.1264C15.2983 21.9943 15.7866 21.807 16.264 21.5978L17.1971 22.4348C17.414 22.6331 17.7179 22.6992 18 22.534C18.2495 22.3907 18.3689 22.1044 18.2929 21.7961L18.0433 20.5516C18.4556 20.2432 18.8679 19.9018 19.2369 19.5384L20.3869 20.0229C20.6907 20.1441 20.9729 20.067 21.1899 19.8138C21.3634 19.5934 21.396 19.2851 21.2332 19.0207L20.5714 17.9304C20.8535 17.501 21.1139 17.0384 21.3526 16.5538L22.6112 16.5979C22.8933 16.6199 23.1754 16.4658 23.2622 16.1574C23.3598 15.8711 23.2622 15.5848 23.0343 15.3975L22.0578 14.6045C22.188 14.098 22.2748 13.5693 22.3182 13.0187L23.5008 12.6333C23.8047 12.5341 24 12.3029 24 11.9945C24 11.6752 23.8047 11.4548 23.5008 11.3558L22.3182 10.9703C22.2748 10.4196 22.188 9.90203 22.0578 9.38441L23.0343 8.58046C23.2513 8.40426 23.3598 8.12893 23.2622 7.84259C23.1754 7.53424 22.8933 7.38005 22.6112 7.40208L21.3526 7.43512C21.1139 6.95055 20.8535 6.49901 20.5714 6.04748L21.2332 4.95719C21.3851 4.71491 21.3634 4.40655 21.1899 4.18629C20.9729 3.92197 20.6907 3.8559 20.3978 3.97704L19.2369 4.43959C18.8679 4.09818 18.4556 3.74576 18.0433 3.4374L18.2929 2.20394C18.358 1.87356 18.2495 1.59823 18 1.46608C17.7179 1.30088 17.414 1.34494 17.1971 1.55418L16.264 2.38015C15.7866 2.18192 15.2983 2.00571 14.7992 1.86255L14.6039 0.596053C14.5714 0.287691 14.3653 0.0674303 14.0723 0.0123654C13.7685 -0.0426994 13.4972 0.0894564 13.3779 0.342755L12.7703 1.49911C12.51 1.47709 12.2495 1.46608 11.9891 1.46608C11.7179 1.46608 11.4684 1.47709 11.1971 1.49911L10.6003 0.342755C10.4701 0.0894564 10.2097 -0.0426994 9.90596 0.0123654C9.613 0.0674303 9.42856 0.287691 9.37431 0.596053L9.17901 1.85153C8.67991 2.00571 8.19167 2.18192 7.70342 2.38015L6.78119 1.5652C6.55334 1.34494 6.26039 1.30088 5.96744 1.46608C5.72874 1.59823 5.62024 1.87356 5.68535 2.20394L5.92404 3.4374C5.52259 3.74576 5.09944 4.09818 4.73055 4.43959L3.58047 3.97704C3.28751 3.8559 3.00542 3.92197 2.78843 4.18629C2.61483 4.40655 2.58228 4.71491 2.73418 4.95719L3.40687 6.04748C3.12477 6.49901 2.87522 6.95055 2.62567 7.43512L1.36709 7.40208C1.07414 7.38005 0.802892 7.53424 0.716093 7.84259C0.618444 8.12893 0.705243 8.40426 0.94394 8.58046L1.92044 9.38441C1.79023 9.90203 1.70343 10.4196 1.67089 10.9703L0.466545 11.3558C0.162748 11.4439 0 11.6752 0 11.9945C0 12.3139 0.162748 12.5341 0.466545 12.6333L1.67089 13.0187C1.70343 13.5693 1.79023 14.098 1.92044 14.6045L0.94394 15.3975C0.705243 15.5848 0.618444 15.8711 0.716093 16.1574C0.802892 16.4658 1.07414 16.6199 1.36709 16.5979L2.62567 16.5538C2.87522 17.0384 3.12477 17.501 3.40687 17.9304L2.74502 19.0207C2.59312 19.2851 2.60397 19.5934 2.78843 19.8138C3.00542 20.067 3.28751 20.1441 3.59131 20.0229L4.73055 19.5384C5.09944 19.9018 5.52259 20.2432 5.92404 20.5516L5.68535 21.7961C5.63109 22.1044 5.72874 22.3907 5.96744 22.534C6.26039 22.6992 6.55334 22.6331 6.78119 22.4348L7.70342 21.5978C8.19167 21.807 8.67991 21.9943 9.17901 22.1374L9.37431 23.404C9.42856 23.7123 9.613 23.9326 9.90596 23.9876C10.2097 24.0427 10.4701 23.9106 10.6003 23.6462L11.1971 22.4899C11.4575 22.5118 11.7179 22.5229 11.9891 22.5229ZM11.9891 20.7498C7.17178 20.7498 3.48282 16.8732 3.48282 12.0055C3.48282 7.12675 7.17178 3.23917 11.9891 3.23917C16.8065 3.23917 20.5171 7.12675 20.5171 12.0055C20.5171 16.8732 16.8065 20.7498 11.9891 20.7498ZM10.1013 10.3095L11.3815 9.48353L7.75767 3.17309L6.42314 3.93299L10.1013 10.3095ZM14.4087 12.7433H21.6238V11.2236H14.4087V12.7433ZM11.4033 14.5385L10.1338 13.7015L6.31463 20.0229L7.63832 20.8159L11.4033 14.5385ZM11.9674 14.8909C13.5407 14.8909 14.8101 13.6134 14.8101 12.0165C14.8101 10.4196 13.5407 9.13111 11.9674 9.13111C10.3942 9.13111 9.13561 10.4196 9.13561 12.0165C9.13561 13.6134 10.3942 14.8909 11.9674 14.8909ZM11.9674 13.239C11.2838 13.239 10.7522 12.7214 10.7522 12.0165C10.7522 11.3117 11.2838 10.772 11.9674 10.772C12.6618 10.772 13.1935 11.3117 13.1935 12.0165C13.1935 12.7214 12.6618 13.239 11.9674 13.239Z" fill="white"/>
</g>
<defs>
<clipPath id="clip0_5_916">
<rect width="24" height="24" fill="white"/>
</clipPath>
</defs>
</svg>
