<svg width="24" height="24" viewBox="0 0 24 24" fill="none" xmlns="http://www.w3.org/2000/svg">
<g clip-path="url(#clip0_5_924)">
<path d="M4.09344 23.9998H19.9066C22.6442 23.9998 24 22.6441 24 19.9586V4.04127C24 1.35578 22.6442 0 19.9066 0H4.09344C1.36882 0 0 1.34274 0 4.04127V19.9586C0 22.6572 1.36882 23.9998 4.09344 23.9998ZM4.11951 21.9011C2.81587 21.9011 2.09887 21.2101 2.09887 19.8544V4.14556C2.09887 2.78978 2.81587 2.09885 4.11951 2.09885H19.8805C21.1712 2.09885 21.9011 2.78978 21.9011 4.14556V19.8544C21.9011 21.2101 21.1712 21.9011 19.8805 21.9011H4.11951Z" fill="white"/>
<path d="M5.95859 12.445L11.3132 12.4578C11.556 12.4578 11.7222 12.6112 11.7222 12.8668V18.1575C11.7222 19.2948 12.9235 19.4099 13.3068 18.592L18.981 6.48981C19.4538 5.50579 18.5976 4.66234 17.6008 5.13519L5.53685 10.8604C4.70619 11.2566 4.83398 12.445 5.95859 12.445Z" fill="white"/>
</g>
<defs>
<clipPath id="clip0_5_924">
<rect width="24" height="24" fill="white"/>
</clipPath>
</defs>
</svg>
