<svg width="24" height="24" viewBox="0 0 24 24" fill="none" xmlns="http://www.w3.org/2000/svg">
<g clip-path="url(#clip0_5_920)">
<path d="M4.88982 19.8003H17.8828C21.2458 19.8003 23.8503 17.2551 23.8503 14.0012C23.8503 10.7174 21.1859 8.24202 17.5634 8.24202C16.2362 5.60698 13.8012 4 10.8375 4C6.9655 4 3.69232 7.00434 3.34304 10.9869C1.34719 11.5558 0 13.2326 0 15.3586C0 17.814 1.78628 19.8003 4.88982 19.8003ZM4.86986 18.1933C2.82412 18.1933 1.60666 17.0853 1.60666 15.4085C1.60666 13.9712 2.52475 12.9332 4.14138 12.504C4.70021 12.3643 4.90978 12.1047 4.94969 11.5258C5.1892 8.1422 7.72392 5.60698 10.8375 5.60698C13.2425 5.60698 15.0986 6.94446 16.2162 9.24013C16.4557 9.72922 16.7451 9.89889 17.3539 9.89889C20.4773 9.89889 22.2337 11.7854 22.2337 14.0411C22.2337 16.3667 20.3776 18.1933 17.9925 18.1933H4.86986Z" fill="white"/>
</g>
<defs>
<clipPath id="clip0_5_920">
<rect width="24" height="24" fill="white"/>
</clipPath>
</defs>
</svg>
